<svg width="24" height="25" viewBox="0 0 24 25" fill="none" xmlns="http://www.w3.org/2000/svg">
<path d="M6 11.4305V15.4305M18 9.43051V13.4305M17 4.43051C19.4487 4.43051 20.7731 4.80527 21.4321 5.09595C21.5199 5.13467 21.5638 5.15402 21.6904 5.27488C21.7663 5.34733 21.9049 5.5599 21.9405 5.6586C22 5.82325 22 5.91325 22 6.09325V16.8417C22 17.7504 22 18.2048 21.8637 18.4384C21.7251 18.6759 21.5914 18.7864 21.3319 18.8777C21.0769 18.9675 20.562 18.8685 19.5322 18.6707C18.8114 18.5322 17.9565 18.4305 17 18.4305C14 18.4305 11 20.4305 7 20.4305C4.55129 20.4305 3.22687 20.0557 2.56788 19.7651C2.48012 19.7264 2.43624 19.707 2.3096 19.5861C2.23369 19.5137 2.09512 19.3011 2.05947 19.2024C2 19.0378 2 18.9478 2 18.7678L2 8.01937C2 7.1106 2 6.65621 2.13628 6.42265C2.2749 6.18508 2.40859 6.07463 2.66806 5.98332C2.92314 5.89356 3.43803 5.99249 4.46783 6.19036C5.18862 6.32885 6.04348 6.43051 7 6.43051C10 6.43051 13 4.43051 17 4.43051ZM14.5 12.4305C14.5 13.8112 13.3807 14.9305 12 14.9305C10.6193 14.9305 9.5 13.8112 9.5 12.4305C9.5 11.0498 10.6193 9.93051 12 9.93051C13.3807 9.93051 14.5 11.0498 14.5 12.4305Z" stroke="#868B90" stroke-width="2" stroke-linecap="round" stroke-linejoin="round"/>
</svg>
