<svg width="24" height="25" viewBox="0 0 24 25" fill="none" xmlns="http://www.w3.org/2000/svg">
<path d="M6 11.4304V15.4304M18 9.43042V13.4304M17 4.43042C19.4487 4.43042 20.7731 4.80518 21.4321 5.09586C21.5199 5.13457 21.5638 5.15393 21.6904 5.27479C21.7663 5.34724 21.9049 5.55981 21.9405 5.65851C22 5.82316 22 5.91316 22 6.09316V16.8416C22 17.7503 22 18.2047 21.8637 18.4383C21.7251 18.6759 21.5914 18.7863 21.3319 18.8776C21.0769 18.9674 20.562 18.8684 19.5322 18.6706C18.8114 18.5321 17.9565 18.4304 17 18.4304C14 18.4304 11 20.4304 7 20.4304C4.55129 20.4304 3.22687 20.0557 2.56788 19.765C2.48012 19.7263 2.43624 19.7069 2.3096 19.586C2.23369 19.5136 2.09512 19.301 2.05947 19.2023C2 19.0377 2 18.9477 2 18.7677L2 8.01927C2 7.11051 2 6.65612 2.13628 6.42256C2.2749 6.18498 2.40859 6.07454 2.66806 5.98323C2.92314 5.89347 3.43803 5.9924 4.46783 6.19027C5.18862 6.32876 6.04348 6.43042 7 6.43042C10 6.43042 13 4.43042 17 4.43042ZM14.5 12.4304C14.5 13.8111 13.3807 14.9304 12 14.9304C10.6193 14.9304 9.5 13.8111 9.5 12.4304C9.5 11.0497 10.6193 9.93042 12 9.93042C13.3807 9.93042 14.5 11.0497 14.5 12.4304Z" stroke="#868B90" stroke-width="2" stroke-linecap="round" stroke-linejoin="round"/>
</svg>
