<svg width="24" height="25" viewBox="0 0 24 25" fill="none" xmlns="http://www.w3.org/2000/svg">
<path d="M6 6.43054L8 4.43054M8 4.43054L6 2.43054M8 4.43054H6C3.79086 4.43054 2 6.2214 2 8.43054M18 18.4305L16 20.4305M16 20.4305L18 22.4305M16 20.4305H18C20.2091 20.4305 22 18.6397 22 16.4305M10.189 6.93054C10.8551 4.3427 13.2042 2.43054 16 2.43054C19.3137 2.43054 22 5.11683 22 8.43054C22 11.2263 20.0879 13.5754 17.5001 14.2415M14 16.4305C14 19.7443 11.3137 22.4305 8 22.4305C4.68629 22.4305 2 19.7443 2 16.4305C2 13.1168 4.68629 10.4305 8 10.4305C11.3137 10.4305 14 13.1168 14 16.4305Z" stroke="#868B90" stroke-width="2" stroke-linecap="round" stroke-linejoin="round"/>
</svg>
