<svg width="24" height="25" viewBox="0 0 24 25" fill="none" xmlns="http://www.w3.org/2000/svg">
<path d="M13.5295 8.78228C12.9571 9.19037 12.2566 9.43042 11.5 9.43042C9.567 9.43042 8 7.86342 8 5.93042C8 3.99742 9.567 2.43042 11.5 2.43042C12.753 2.43042 13.8522 3.08884 14.4705 4.07856M6 20.5176H8.61029C8.95063 20.5176 9.28888 20.5581 9.61881 20.6391L12.3769 21.3093C12.9753 21.4551 13.5988 21.4693 14.2035 21.3518L17.253 20.7585C18.0585 20.6016 18.7996 20.2159 19.3803 19.6509L21.5379 17.5521C22.154 16.9538 22.154 15.9829 21.5379 15.3835C20.9832 14.8439 20.1047 14.7831 19.4771 15.2407L16.9626 17.0753C16.6025 17.3385 16.1643 17.4803 15.7137 17.4803H13.2855L14.8311 17.4802C15.7022 17.4802 16.4079 16.7937 16.4079 15.9463V15.6396C16.4079 14.9359 15.9156 14.3224 15.2141 14.1523L12.8286 13.5722C12.4404 13.478 12.0428 13.4304 11.6431 13.4304C10.6783 13.4304 8.93189 14.2292 8.93189 14.2292L6 15.4553M20 6.93042C20 8.86342 18.433 10.4304 16.5 10.4304C14.567 10.4304 13 8.86342 13 6.93042C13 4.99742 14.567 3.43042 16.5 3.43042C18.433 3.43042 20 4.99742 20 6.93042ZM2 15.0304L2 20.8304C2 21.3905 2 21.6705 2.10899 21.8844C2.20487 22.0726 2.35785 22.2256 2.54601 22.3214C2.75992 22.4304 3.03995 22.4304 3.6 22.4304H4.4C4.96005 22.4304 5.24008 22.4304 5.45399 22.3214C5.64215 22.2256 5.79513 22.0726 5.89101 21.8844C6 21.6705 6 21.3905 6 20.8304V15.0304C6 14.4704 6 14.1903 5.89101 13.9764C5.79513 13.7883 5.64215 13.6353 5.45399 13.5394C5.24008 13.4304 4.96005 13.4304 4.4 13.4304L3.6 13.4304C3.03995 13.4304 2.75992 13.4304 2.54601 13.5394C2.35785 13.6353 2.20487 13.7883 2.10899 13.9764C2 14.1903 2 14.4704 2 15.0304Z" stroke="#868B90" stroke-width="2" stroke-linecap="round" stroke-linejoin="round"/>
</svg>
