<svg width="24" height="25" viewBox="0 0 24 25" fill="none" xmlns="http://www.w3.org/2000/svg">
<path d="M6 6.43042L8 4.43042M8 4.43042L6 2.43042M8 4.43042H6C3.79086 4.43042 2 6.22128 2 8.43042M18 18.4304L16 20.4304M16 20.4304L18 22.4304M16 20.4304H18C20.2091 20.4304 22 18.6396 22 16.4304M10.189 6.93042C10.8551 4.34258 13.2042 2.43042 16 2.43042C19.3137 2.43042 22 5.11671 22 8.43042C22 11.2262 20.0879 13.5753 17.5001 14.2414M14 16.4304C14 19.7441 11.3137 22.4304 8 22.4304C4.68629 22.4304 2 19.7441 2 16.4304C2 13.1167 4.68629 10.4304 8 10.4304C11.3137 10.4304 14 13.1167 14 16.4304Z" stroke="#868B90" stroke-width="2" stroke-linecap="round" stroke-linejoin="round"/>
</svg>
