<svg width="24" height="25" viewBox="0 0 24 25" fill="none" xmlns="http://www.w3.org/2000/svg">
<path d="M13.5295 8.7824C12.9571 9.19049 12.2566 9.43054 11.5 9.43054C9.567 9.43054 8 7.86354 8 5.93054C8 3.99755 9.567 2.43054 11.5 2.43054C12.753 2.43054 13.8522 3.08896 14.4705 4.07868M6 20.5177H8.61029C8.95063 20.5177 9.28888 20.5582 9.61881 20.6392L12.3769 21.3094C12.9753 21.4552 13.5988 21.4694 14.2035 21.3519L17.253 20.7587C18.0585 20.6017 18.7996 20.216 19.3803 19.651L21.5379 17.5523C22.154 16.9539 22.154 15.983 21.5379 15.3836C20.9832 14.844 20.1047 14.7832 19.4771 15.2409L16.9626 17.0754C16.6025 17.3386 16.1643 17.4804 15.7137 17.4804H13.2855L14.8311 17.4803C15.7022 17.4803 16.4079 16.7939 16.4079 15.9465V15.6397C16.4079 14.936 15.9156 14.3225 15.2141 14.1524L12.8286 13.5723C12.4404 13.4781 12.0428 13.4305 11.6431 13.4305C10.6783 13.4305 8.93189 14.2294 8.93189 14.2294L6 15.4554M20 6.93054C20 8.86354 18.433 10.4305 16.5 10.4305C14.567 10.4305 13 8.86354 13 6.93054C13 4.99755 14.567 3.43054 16.5 3.43054C18.433 3.43054 20 4.99755 20 6.93054ZM2 15.0305L2 20.8305C2 21.3906 2 21.6706 2.10899 21.8845C2.20487 22.0727 2.35785 22.2257 2.54601 22.3215C2.75992 22.4305 3.03995 22.4305 3.6 22.4305H4.4C4.96005 22.4305 5.24008 22.4305 5.45399 22.3215C5.64215 22.2257 5.79513 22.0727 5.89101 21.8845C6 21.6706 6 21.3906 6 20.8305V15.0305C6 14.4705 6 14.1905 5.89101 13.9766C5.79513 13.7884 5.64215 13.6354 5.45399 13.5395C5.24008 13.4305 4.96005 13.4305 4.4 13.4305L3.6 13.4305C3.03995 13.4305 2.75992 13.4305 2.54601 13.5395C2.35785 13.6354 2.20487 13.7884 2.10899 13.9766C2 14.1905 2 14.4705 2 15.0305Z" stroke="#868B90" stroke-width="2" stroke-linecap="round" stroke-linejoin="round"/>
</svg>
