<svg width="24" height="25" viewBox="0 0 24 25" fill="none" xmlns="http://www.w3.org/2000/svg">
<path d="M6 6.43066L8 4.43066M8 4.43066L6 2.43066M8 4.43066H6C3.79086 4.43066 2 6.22152 2 8.43066M18 18.4307L16 20.4307M16 20.4307L18 22.4307M16 20.4307H18C20.2091 20.4307 22 18.6398 22 16.4307M10.189 6.93066C10.8551 4.34282 13.2042 2.43066 16 2.43066C19.3137 2.43066 22 5.11696 22 8.43066C22 11.2264 20.0879 13.5755 17.5001 14.2416M14 16.4307C14 19.7444 11.3137 22.4307 8 22.4307C4.68629 22.4307 2 19.7444 2 16.4307C2 13.117 4.68629 10.4307 8 10.4307C11.3137 10.4307 14 13.117 14 16.4307Z" stroke="#868B90" stroke-width="2" stroke-linecap="round" stroke-linejoin="round"/>
</svg>
