<svg width="24" height="25" viewBox="0 0 24 25" fill="none" xmlns="http://www.w3.org/2000/svg">
<path d="M6 6.43051L8 4.43051M8 4.43051L6 2.43051M8 4.43051H6C3.79086 4.43051 2 6.22137 2 8.43051M18 18.4305L16 20.4305M16 20.4305L18 22.4305M16 20.4305H18C20.2091 20.4305 22 18.6397 22 16.4305M10.189 6.93051C10.8551 4.34267 13.2042 2.43051 16 2.43051C19.3137 2.43051 22 5.1168 22 8.43051C22 11.2262 20.0879 13.5754 17.5001 14.2415M14 16.4305C14 19.7442 11.3137 22.4305 8 22.4305C4.68629 22.4305 2 19.7442 2 16.4305C2 13.1168 4.68629 10.4305 8 10.4305C11.3137 10.4305 14 13.1168 14 16.4305Z" stroke="#FCFCFC" stroke-width="2" stroke-linecap="round" stroke-linejoin="round"/>
</svg>
