<svg width="38" height="38" viewBox="0 0 38 38" fill="none" xmlns="http://www.w3.org/2000/svg">
<rect width="38" height="38" rx="7" fill="#FFEEEE"/>
<path d="M16 10H22M10 13H28M26 13L25.2987 23.5193C25.1935 25.0975 25.1409 25.8867 24.8 26.485C24.4999 27.0118 24.0472 27.4353 23.5017 27.6997C22.882 28 22.0911 28 20.5093 28H17.4907C15.9089 28 15.118 28 14.4983 27.6997C13.9528 27.4353 13.5001 27.0118 13.2 26.485C12.8591 25.8867 12.8065 25.0975 12.7013 23.5193L12 13M17 17.5V22.5M21 17.5V22.5" stroke="#FD5858" stroke-linecap="round" stroke-linejoin="round"/>
</svg>
