<svg width="48" height="48" viewBox="0 0 48 48" fill="none" xmlns="http://www.w3.org/2000/svg">
<g filter="url(#filter0_d_213_1666)">
<rect x="5" y="4" width="38" height="38" rx="7" fill="white"/>
<path d="M21 14H27M15 17H33M31 17L30.2987 27.5193C30.1935 29.0975 30.1409 29.8867 29.8 30.485C29.4999 31.0118 29.0472 31.4353 28.5017 31.6997C27.882 32 27.0911 32 25.5093 32H22.4907C20.9089 32 20.118 32 19.4983 31.6997C18.9528 31.4353 18.5001 31.0118 18.2 30.485C17.8591 29.8867 17.8065 29.0975 17.7013 27.5193L17 17M22 21.5V26.5M26 21.5V26.5" stroke="#FD5858" stroke-linecap="round" stroke-linejoin="round"/>
</g>
<defs>
<filter id="filter0_d_213_1666" x="0" y="0" width="48" height="48" filterUnits="userSpaceOnUse" color-interpolation-filters="sRGB">
<feFlood flood-opacity="0" result="BackgroundImageFix"/>
<feColorMatrix in="SourceAlpha" type="matrix" values="0 0 0 0 0 0 0 0 0 0 0 0 0 0 0 0 0 0 127 0" result="hardAlpha"/>
<feMorphology radius="2" operator="erode" in="SourceAlpha" result="effect1_dropShadow_213_1666"/>
<feOffset dy="1"/>
<feGaussianBlur stdDeviation="3.5"/>
<feComposite in2="hardAlpha" operator="out"/>
<feColorMatrix type="matrix" values="0 0 0 0 0 0 0 0 0 0 0 0 0 0 0 0 0 0 0.15 0"/>
<feBlend mode="normal" in2="BackgroundImageFix" result="effect1_dropShadow_213_1666"/>
<feBlend mode="normal" in="SourceGraphic" in2="effect1_dropShadow_213_1666" result="shape"/>
</filter>
</defs>
</svg>
