<svg width="24" height="25" viewBox="0 0 24 25" fill="none" xmlns="http://www.w3.org/2000/svg">
<path d="M9.35395 21.4305C10.0591 22.0529 10.9853 22.4305 11.9998 22.4305C13.0142 22.4305 13.9405 22.0529 14.6456 21.4305M17.9998 8.43051C17.9998 6.83921 17.3676 5.31309 16.2424 4.18787C15.1172 3.06265 13.5911 2.43051 11.9998 2.43051C10.4085 2.43051 8.88235 3.06265 7.75713 4.18787C6.63192 5.31309 5.99977 6.83921 5.99977 8.43051C5.99977 11.5207 5.22024 13.6365 4.34944 15.0359C3.6149 16.2164 3.24763 16.8066 3.2611 16.9713C3.27601 17.1536 3.31463 17.2231 3.46155 17.3321C3.59423 17.4305 4.19237 17.4305 5.38863 17.4305H18.6109C19.8072 17.4305 20.4053 17.4305 20.538 17.3321C20.6849 17.2231 20.7235 17.1536 20.7384 16.9713C20.7519 16.8066 20.3846 16.2164 19.6501 15.0359C18.7793 13.6365 17.9998 11.5207 17.9998 8.43051Z" stroke="#FCFCFC" stroke-width="2" stroke-linecap="round" stroke-linejoin="round"/>
</svg>
