<svg width="24" height="25" viewBox="0 0 24 25" fill="none" xmlns="http://www.w3.org/2000/svg">
<path d="M9.35395 21.4304C10.0591 22.0528 10.9853 22.4304 11.9998 22.4304C13.0142 22.4304 13.9405 22.0528 14.6456 21.4304M17.9998 8.43042C17.9998 6.83912 17.3676 5.313 16.2424 4.18778C15.1172 3.06256 13.5911 2.43042 11.9998 2.43042C10.4085 2.43042 8.88235 3.06256 7.75713 4.18778C6.63192 5.313 5.99977 6.83912 5.99977 8.43042C5.99977 11.5206 5.22024 13.6364 4.34944 15.0358C3.6149 16.2163 3.24763 16.8065 3.2611 16.9712C3.27601 17.1535 3.31463 17.223 3.46155 17.332C3.59423 17.4304 4.19237 17.4304 5.38863 17.4304H18.6109C19.8072 17.4304 20.4053 17.4304 20.538 17.332C20.6849 17.223 20.7235 17.1535 20.7384 16.9712C20.7519 16.8065 20.3846 16.2163 19.6501 15.0358C18.7793 13.6364 17.9998 11.5206 17.9998 8.43042Z" stroke="#868B90" stroke-width="2" stroke-linecap="round" stroke-linejoin="round"/>
</svg>
