<svg width="24" height="25" viewBox="0 0 24 25" fill="none" xmlns="http://www.w3.org/2000/svg">
<path d="M9.35419 21.4305C10.0593 22.0529 10.9856 22.4305 12 22.4305C13.0145 22.4305 13.9407 22.0529 14.6458 21.4305M18 8.43051C18 6.83921 17.3679 5.31309 16.2427 4.18787C15.1174 3.06265 13.5913 2.43051 12 2.43051C10.4087 2.43051 8.8826 3.06265 7.75738 4.18787C6.63216 5.31309 6.00002 6.83921 6.00002 8.43051C6.00002 11.5207 5.22049 13.6365 4.34968 15.0359C3.61515 16.2164 3.24788 16.8066 3.26134 16.9713C3.27626 17.1536 3.31488 17.2231 3.46179 17.3321C3.59448 17.4305 4.19261 17.4305 5.38887 17.4305H18.6112C19.8074 17.4305 20.4056 17.4305 20.5382 17.3321C20.6852 17.2231 20.7238 17.1536 20.7387 16.9713C20.7522 16.8066 20.3849 16.2164 19.6504 15.0359C18.7795 13.6365 18 11.5207 18 8.43051Z" stroke="#868B90" stroke-width="2" stroke-linecap="round" stroke-linejoin="round"/>
</svg>
