<svg width="48" height="48" viewBox="0 0 48 48" fill="none" xmlns="http://www.w3.org/2000/svg">
<g filter="url(#filter0_d_213_1598)">
<rect x="5" y="4" width="38" height="38" rx="7" fill="white"/>
<path d="M23 15H18.8C17.1198 15 16.2798 15 15.638 15.327C15.0735 15.6146 14.6146 16.0735 14.327 16.638C14 17.2797 14 18.1198 14 19.8V28.2C14 29.8801 14 30.7202 14.327 31.362C14.6146 31.9264 15.0735 32.3854 15.638 32.673C16.2798 33 17.1198 33 18.8 33H27.2C28.8802 33 29.7202 33 30.362 32.673C30.9265 32.3854 31.3854 31.9264 31.673 31.362C32 30.7202 32 29.8801 32 28.2V24M20 27H21.6745C22.1637 27 22.4083 27 22.6385 26.9447C22.8425 26.8957 23.0376 26.8149 23.2166 26.7053C23.4184 26.5816 23.5914 26.4086 23.9373 26.0627L33.5 16.5C34.3284 15.6716 34.3284 14.3284 33.5 13.5C32.6716 12.6716 31.3284 12.6716 30.5 13.5L20.9372 23.0627C20.5913 23.4086 20.4184 23.5816 20.2947 23.7834C20.185 23.9624 20.1042 24.1574 20.0552 24.3615C20 24.5917 20 24.8363 20 25.3255V27Z" stroke="#46B7DA" stroke-linecap="round" stroke-linejoin="round"/>
</g>
<defs>
<filter id="filter0_d_213_1598" x="0" y="0" width="48" height="48" filterUnits="userSpaceOnUse" color-interpolation-filters="sRGB">
<feFlood flood-opacity="0" result="BackgroundImageFix"/>
<feColorMatrix in="SourceAlpha" type="matrix" values="0 0 0 0 0 0 0 0 0 0 0 0 0 0 0 0 0 0 127 0" result="hardAlpha"/>
<feMorphology radius="2" operator="erode" in="SourceAlpha" result="effect1_dropShadow_213_1598"/>
<feOffset dy="1"/>
<feGaussianBlur stdDeviation="3.5"/>
<feComposite in2="hardAlpha" operator="out"/>
<feColorMatrix type="matrix" values="0 0 0 0 0 0 0 0 0 0 0 0 0 0 0 0 0 0 0.15 0"/>
<feBlend mode="normal" in2="BackgroundImageFix" result="effect1_dropShadow_213_1598"/>
<feBlend mode="normal" in="SourceGraphic" in2="effect1_dropShadow_213_1598" result="shape"/>
</filter>
</defs>
</svg>
