<svg width="38" height="38" viewBox="0 0 38 38" fill="none" xmlns="http://www.w3.org/2000/svg">
<rect width="38" height="38" rx="7" fill="#ECF7FB"/>
<path d="M18 11H13.8C12.1198 11 11.2798 11 10.638 11.327C10.0735 11.6146 9.6146 12.0735 9.32698 12.638C9 13.2797 9 14.1198 9 15.8V24.2C9 25.8801 9 26.7202 9.32698 27.362C9.6146 27.9264 10.0735 28.3854 10.638 28.673C11.2798 29 12.1198 29 13.8 29H22.2C23.8802 29 24.7202 29 25.362 28.673C25.9265 28.3854 26.3854 27.9264 26.673 27.362C27 26.7202 27 25.8801 27 24.2V20M15 23H16.6745C17.1637 23 17.4083 23 17.6385 22.9447C17.8425 22.8957 18.0376 22.8149 18.2166 22.7053C18.4184 22.5816 18.5914 22.4086 18.9373 22.0627L28.5 12.5C29.3284 11.6716 29.3284 10.3284 28.5 9.49998C27.6716 8.67156 26.3284 8.67155 25.5 9.49998L15.9372 19.0627C15.5913 19.4086 15.4184 19.5816 15.2947 19.7834C15.185 19.9624 15.1042 20.1574 15.0552 20.3615C15 20.5917 15 20.8363 15 21.3255V23Z" stroke="#46B7DA" stroke-linecap="round" stroke-linejoin="round"/>
</svg>
