<svg width="24" height="25" viewBox="0 0 24 25" fill="none" xmlns="http://www.w3.org/2000/svg">
<path d="M16 16.4307C16 16.4307 14.5 14.4307 12 14.4307C9.5 14.4307 8 16.4307 8 16.4307M17 9.67066C16.605 10.1557 16.065 10.4307 15.5 10.4307C14.935 10.4307 14.41 10.1557 14 9.67066M10 9.67066C9.605 10.1557 9.065 10.4307 8.5 10.4307C7.935 10.4307 7.41 10.1557 7 9.67066M22 12.4307C22 17.9535 17.5228 22.4307 12 22.4307C6.47715 22.4307 2 17.9535 2 12.4307C2 6.90782 6.47715 2.43066 12 2.43066C17.5228 2.43066 22 6.90782 22 12.4307Z" stroke="#868B90" stroke-width="2" stroke-linecap="round" stroke-linejoin="round"/>
</svg>
