<svg width="24" height="25" viewBox="0 0 24 25" fill="none" xmlns="http://www.w3.org/2000/svg">
<path d="M16 16.4305C16 16.4305 14.5 14.4305 12 14.4305C9.5 14.4305 8 16.4305 8 16.4305M17 9.67051C16.605 10.1555 16.065 10.4305 15.5 10.4305C14.935 10.4305 14.41 10.1555 14 9.67051M10 9.67051C9.605 10.1555 9.065 10.4305 8.5 10.4305C7.935 10.4305 7.41 10.1555 7 9.67051M22 12.4305C22 17.9534 17.5228 22.4305 12 22.4305C6.47715 22.4305 2 17.9534 2 12.4305C2 6.90766 6.47715 2.43051 12 2.43051C17.5228 2.43051 22 6.90766 22 12.4305Z" stroke="#868B90" stroke-width="2" stroke-linecap="round" stroke-linejoin="round"/>
</svg>
