<svg width="24" height="25" viewBox="0 0 24 25" fill="none" xmlns="http://www.w3.org/2000/svg">
<path d="M16 16.4304C16 16.4304 14.5 14.4304 12 14.4304C9.5 14.4304 8 16.4304 8 16.4304M17 9.67042C16.605 10.1554 16.065 10.4304 15.5 10.4304C14.935 10.4304 14.41 10.1554 14 9.67042M10 9.67042C9.605 10.1554 9.065 10.4304 8.5 10.4304C7.935 10.4304 7.41 10.1554 7 9.67042M22 12.4304C22 17.9533 17.5228 22.4304 12 22.4304C6.47715 22.4304 2 17.9533 2 12.4304C2 6.90757 6.47715 2.43042 12 2.43042C17.5228 2.43042 22 6.90757 22 12.4304Z" stroke="#868B90" stroke-width="2" stroke-linecap="round" stroke-linejoin="round"/>
</svg>
