<svg width="24" height="25" viewBox="0 0 24 25" fill="none" xmlns="http://www.w3.org/2000/svg">
<path d="M8.4 3.43042H4.6C4.03995 3.43042 3.75992 3.43042 3.54601 3.53941C3.35785 3.63529 3.20487 3.78827 3.10899 3.97643C3 4.19034 3 4.47037 3 5.03042V8.83042C3 9.39047 3 9.6705 3.10899 9.88441C3.20487 10.0726 3.35785 10.2256 3.54601 10.3214C3.75992 10.4304 4.03995 10.4304 4.6 10.4304H8.4C8.96005 10.4304 9.24008 10.4304 9.45399 10.3214C9.64215 10.2256 9.79513 10.0726 9.89101 9.88441C10 9.6705 10 9.39047 10 8.83042V5.03042C10 4.47037 10 4.19034 9.89101 3.97643C9.79513 3.78827 9.64215 3.63529 9.45399 3.53941C9.24008 3.43042 8.96005 3.43042 8.4 3.43042Z" stroke="#868B90" stroke-width="2" stroke-linecap="round" stroke-linejoin="round"/>
<path d="M19.4 3.43042H15.6C15.0399 3.43042 14.7599 3.43042 14.546 3.53941C14.3578 3.63529 14.2049 3.78827 14.109 3.97643C14 4.19034 14 4.47037 14 5.03042V8.83042C14 9.39047 14 9.6705 14.109 9.88441C14.2049 10.0726 14.3578 10.2256 14.546 10.3214C14.7599 10.4304 15.0399 10.4304 15.6 10.4304H19.4C19.9601 10.4304 20.2401 10.4304 20.454 10.3214C20.6422 10.2256 20.7951 10.0726 20.891 9.88441C21 9.6705 21 9.39047 21 8.83042V5.03042C21 4.47037 21 4.19034 20.891 3.97643C20.7951 3.78827 20.6422 3.63529 20.454 3.53941C20.2401 3.43042 19.9601 3.43042 19.4 3.43042Z" stroke="#868B90" stroke-width="2" stroke-linecap="round" stroke-linejoin="round"/>
<path d="M19.4 14.4304H15.6C15.0399 14.4304 14.7599 14.4304 14.546 14.5394C14.3578 14.6353 14.2049 14.7883 14.109 14.9764C14 15.1903 14 15.4704 14 16.0304V19.8304C14 20.3905 14 20.6705 14.109 20.8844C14.2049 21.0726 14.3578 21.2256 14.546 21.3214C14.7599 21.4304 15.0399 21.4304 15.6 21.4304H19.4C19.9601 21.4304 20.2401 21.4304 20.454 21.3214C20.6422 21.2256 20.7951 21.0726 20.891 20.8844C21 20.6705 21 20.3905 21 19.8304V16.0304C21 15.4704 21 15.1903 20.891 14.9764C20.7951 14.7883 20.6422 14.6353 20.454 14.5394C20.2401 14.4304 19.9601 14.4304 19.4 14.4304Z" stroke="#868B90" stroke-width="2" stroke-linecap="round" stroke-linejoin="round"/>
<path d="M8.4 14.4304H4.6C4.03995 14.4304 3.75992 14.4304 3.54601 14.5394C3.35785 14.6353 3.20487 14.7883 3.10899 14.9764C3 15.1903 3 15.4704 3 16.0304V19.8304C3 20.3905 3 20.6705 3.10899 20.8844C3.20487 21.0726 3.35785 21.2256 3.54601 21.3214C3.75992 21.4304 4.03995 21.4304 4.6 21.4304H8.4C8.96005 21.4304 9.24008 21.4304 9.45399 21.3214C9.64215 21.2256 9.79513 21.0726 9.89101 20.8844C10 20.6705 10 20.3905 10 19.8304V16.0304C10 15.4704 10 15.1903 9.89101 14.9764C9.79513 14.7883 9.64215 14.6353 9.45399 14.5394C9.24008 14.4304 8.96005 14.4304 8.4 14.4304Z" stroke="#868B90" stroke-width="2" stroke-linecap="round" stroke-linejoin="round"/>
</svg>
