<svg width="24" height="25" viewBox="0 0 24 25" fill="none" xmlns="http://www.w3.org/2000/svg">
<path d="M8.4 3.43054H4.6C4.03995 3.43054 3.75992 3.43054 3.54601 3.53954C3.35785 3.63541 3.20487 3.78839 3.10899 3.97655C3 4.19046 3 4.47049 3 5.03054V8.83054C3 9.39059 3 9.67062 3.10899 9.88453C3.20487 10.0727 3.35785 10.2257 3.54601 10.3215C3.75992 10.4305 4.03995 10.4305 4.6 10.4305H8.4C8.96005 10.4305 9.24008 10.4305 9.45399 10.3215C9.64215 10.2257 9.79513 10.0727 9.89101 9.88453C10 9.67062 10 9.39059 10 8.83054V5.03054C10 4.47049 10 4.19046 9.89101 3.97655C9.79513 3.78839 9.64215 3.63541 9.45399 3.53954C9.24008 3.43054 8.96005 3.43054 8.4 3.43054Z" stroke="#868B90" stroke-width="2" stroke-linecap="round" stroke-linejoin="round"/>
<path d="M19.4 3.43054H15.6C15.0399 3.43054 14.7599 3.43054 14.546 3.53954C14.3578 3.63541 14.2049 3.78839 14.109 3.97655C14 4.19046 14 4.47049 14 5.03054V8.83054C14 9.39059 14 9.67062 14.109 9.88453C14.2049 10.0727 14.3578 10.2257 14.546 10.3215C14.7599 10.4305 15.0399 10.4305 15.6 10.4305H19.4C19.9601 10.4305 20.2401 10.4305 20.454 10.3215C20.6422 10.2257 20.7951 10.0727 20.891 9.88453C21 9.67062 21 9.39059 21 8.83054V5.03054C21 4.47049 21 4.19046 20.891 3.97655C20.7951 3.78839 20.6422 3.63541 20.454 3.53954C20.2401 3.43054 19.9601 3.43054 19.4 3.43054Z" stroke="#868B90" stroke-width="2" stroke-linecap="round" stroke-linejoin="round"/>
<path d="M19.4 14.4305H15.6C15.0399 14.4305 14.7599 14.4305 14.546 14.5395C14.3578 14.6354 14.2049 14.7884 14.109 14.9766C14 15.1905 14 15.4705 14 16.0305V19.8305C14 20.3906 14 20.6706 14.109 20.8845C14.2049 21.0727 14.3578 21.2257 14.546 21.3215C14.7599 21.4305 15.0399 21.4305 15.6 21.4305H19.4C19.9601 21.4305 20.2401 21.4305 20.454 21.3215C20.6422 21.2257 20.7951 21.0727 20.891 20.8845C21 20.6706 21 20.3906 21 19.8305V16.0305C21 15.4705 21 15.1905 20.891 14.9766C20.7951 14.7884 20.6422 14.6354 20.454 14.5395C20.2401 14.4305 19.9601 14.4305 19.4 14.4305Z" stroke="#868B90" stroke-width="2" stroke-linecap="round" stroke-linejoin="round"/>
<path d="M8.4 14.4305H4.6C4.03995 14.4305 3.75992 14.4305 3.54601 14.5395C3.35785 14.6354 3.20487 14.7884 3.10899 14.9766C3 15.1905 3 15.4705 3 16.0305V19.8305C3 20.3906 3 20.6706 3.10899 20.8845C3.20487 21.0727 3.35785 21.2257 3.54601 21.3215C3.75992 21.4305 4.03995 21.4305 4.6 21.4305H8.4C8.96005 21.4305 9.24008 21.4305 9.45399 21.3215C9.64215 21.2257 9.79513 21.0727 9.89101 20.8845C10 20.6706 10 20.3906 10 19.8305V16.0305C10 15.4705 10 15.1905 9.89101 14.9766C9.79513 14.7884 9.64215 14.6354 9.45399 14.5395C9.24008 14.4305 8.96005 14.4305 8.4 14.4305Z" stroke="#868B90" stroke-width="2" stroke-linecap="round" stroke-linejoin="round"/>
</svg>
