<svg width="40" height="40" viewBox="0 0 40 40" fill="none" xmlns="http://www.w3.org/2000/svg">
<path d="M21.9998 29H17.9998M25.9998 16C25.9998 14.4087 25.3676 12.8826 24.2424 11.7574C23.1172 10.6321 21.5911 10 19.9998 10C18.4085 10 16.8824 10.6321 15.7571 11.7574C14.6319 12.8826 13.9998 14.4087 13.9998 16C13.9998 19.0902 13.2202 21.206 12.3494 22.6054C11.6149 23.7859 11.2476 24.3761 11.2611 24.5408C11.276 24.7231 11.3146 24.7926 11.4616 24.9016C11.5942 25 12.1924 25 13.3886 25H26.6109C27.8072 25 28.4053 25 28.538 24.9016C28.6849 24.7926 28.7235 24.7231 28.7384 24.5408C28.7519 24.3761 28.3846 23.7859 27.6501 22.6054C26.7793 21.206 25.9998 19.0902 25.9998 16Z" stroke="#868B90" stroke-width="2" stroke-linecap="round" stroke-linejoin="round"/>
<circle cx="12" cy="12" r="5.5" fill="#FD5858" stroke="#FFEEEE"/>
</svg>
