<svg width="40" height="40" viewBox="0 0 40 40" fill="none" xmlns="http://www.w3.org/2000/svg">
<path d="M11 15.8C11 14.1198 11 13.2798 11.327 12.638C11.6146 12.0735 12.0735 11.6146 12.638 11.327C13.2798 11 14.1198 11 15.8 11H24.2C25.8802 11 26.7202 11 27.362 11.327C27.9265 11.6146 28.3854 12.0735 28.673 12.638C29 13.2798 29 14.1198 29 15.8V21.2C29 22.8802 29 23.7202 28.673 24.362C28.3854 24.9265 27.9265 25.3854 27.362 25.673C26.7202 26 25.8802 26 24.2 26H21.6837C21.0597 26 20.7477 26 20.4492 26.0613C20.1844 26.1156 19.9282 26.2055 19.6875 26.3285C19.4162 26.4671 19.1725 26.662 18.6852 27.0518L16.2998 28.9602C15.8837 29.2931 15.6756 29.4595 15.5005 29.4597C15.3483 29.4599 15.2042 29.3906 15.1092 29.2716C15 29.1348 15 28.8684 15 28.3355V26C14.07 26 13.605 26 13.2235 25.8978C12.1883 25.6204 11.3796 24.8117 11.1022 23.7765C11 23.395 11 22.93 11 22V15.8Z" stroke="#868B90" stroke-width="2" stroke-linecap="round" stroke-linejoin="round"/>
</svg>
