<svg width="24" height="25" viewBox="0 0 24 25" fill="none" xmlns="http://www.w3.org/2000/svg">
<path d="M17.7447 3.2434C18.7095 2.24692 20.3035 2.23403 21.2843 3.21478C22.2381 4.16865 22.2559 5.70963 21.3242 6.68523L18.5456 9.59499C18.3278 9.82307 18.2189 9.9371 18.1518 10.0707C18.0924 10.1889 18.057 10.3177 18.0478 10.4497C18.0373 10.5988 18.0728 10.7525 18.1437 11.0598L19.8716 18.5473C19.9444 18.8627 19.9808 19.0204 19.969 19.173C19.9586 19.308 19.9209 19.4395 19.8582 19.5595C19.7873 19.6951 19.6728 19.8096 19.4439 20.0385L19.0732 20.4092C18.467 21.0154 18.164 21.3185 17.8538 21.3733C17.5829 21.4212 17.3043 21.3555 17.0834 21.1915C16.8305 21.0037 16.695 20.5971 16.4239 19.7838L14.4141 13.7546L11.0688 17.0999C10.8691 17.2996 10.7693 17.3994 10.7025 17.517C10.6433 17.6211 10.6034 17.7351 10.5845 17.8534C10.5632 17.9869 10.5788 18.1273 10.61 18.4079L10.7937 20.0613C10.8249 20.342 10.8405 20.4823 10.8192 20.6159C10.8003 20.7342 10.7603 20.8481 10.7012 20.9523C10.6344 21.0699 10.5345 21.1697 10.3348 21.3694L10.1373 21.5669C9.66428 22.0399 9.42775 22.2765 9.1649 22.345C8.93436 22.4051 8.68993 22.3809 8.47565 22.2767C8.23134 22.158 8.04579 21.8797 7.67469 21.323L6.10637 18.9706C6.04007 18.8711 6.00692 18.8214 5.96843 18.7763C5.93424 18.7362 5.89694 18.6989 5.85688 18.6647C5.81178 18.6262 5.76206 18.5931 5.66261 18.5268L3.31012 16.9585C2.75348 16.5874 2.47515 16.4018 2.35643 16.1575C2.2523 15.9432 2.2281 15.6988 2.28818 15.4683C2.35668 15.2054 2.59321 14.9689 3.06627 14.4958L3.26378 14.2983C3.46346 14.0986 3.56331 13.9988 3.68089 13.932C3.78505 13.8728 3.899 13.8329 4.0173 13.814C4.15083 13.7927 4.29117 13.8083 4.57184 13.8395L6.22523 14.0232C6.5059 14.0544 6.64623 14.07 6.77977 14.0487C6.89807 14.0298 7.01202 13.9898 7.11618 13.9307C7.23376 13.8639 7.3336 13.764 7.53329 13.5643L10.8786 10.219L4.84933 8.20926C4.0361 7.93818 3.62949 7.80264 3.44169 7.54974C3.27771 7.3289 3.21193 7.05026 3.25984 6.7794C3.31471 6.46921 3.61778 6.16614 4.22393 5.55999L4.5947 5.18922C4.82359 4.96033 4.93804 4.84588 5.07363 4.77499C5.19364 4.71225 5.32514 4.67453 5.46017 4.66413C5.61272 4.65239 5.77043 4.68878 6.08584 4.76157L13.545 6.48291C13.8549 6.55443 14.0099 6.5902 14.1595 6.57956C14.304 6.56928 14.4445 6.52775 14.5713 6.45784C14.7027 6.38543 14.8133 6.27116 15.0346 6.04262L17.7447 3.2434Z" stroke="#868B90" stroke-width="2" stroke-linecap="round" stroke-linejoin="round"/>
</svg>
