<svg width="24" height="25" viewBox="0 0 24 25" fill="none" xmlns="http://www.w3.org/2000/svg">
<path d="M17.7447 3.24332C18.7095 2.24684 20.3035 2.23395 21.2843 3.21469C22.2381 4.16857 22.2559 5.70954 21.3242 6.68514L18.5456 9.59491C18.3278 9.82298 18.2189 9.93702 18.1518 10.0706C18.0924 10.1888 18.057 10.3177 18.0478 10.4497C18.0373 10.5988 18.0728 10.7524 18.1437 11.0597L19.8716 18.5472C19.9444 18.8626 19.9808 19.0204 19.969 19.1729C19.9586 19.3079 19.9209 19.4394 19.8582 19.5594C19.7873 19.695 19.6728 19.8095 19.4439 20.0384L19.0732 20.4092C18.467 21.0153 18.164 21.3184 17.8538 21.3732C17.5829 21.4211 17.3043 21.3554 17.0834 21.1914C16.8305 21.0036 16.695 20.597 16.4239 19.7837L14.4141 13.7545L11.0688 17.0998C10.8691 17.2995 10.7693 17.3993 10.7025 17.5169C10.6433 17.6211 10.6034 17.735 10.5845 17.8533C10.5632 17.9868 10.5788 18.1272 10.61 18.4079L10.7937 20.0612C10.8249 20.3419 10.8405 20.4822 10.8192 20.6158C10.8003 20.7341 10.7603 20.848 10.7012 20.9522C10.6344 21.0698 10.5345 21.1696 10.3348 21.3693L10.1373 21.5668C9.66428 22.0399 9.42775 22.2764 9.1649 22.3449C8.93436 22.405 8.68993 22.3808 8.47565 22.2766C8.23134 22.1579 8.04579 21.8796 7.67469 21.323L6.10637 18.9705C6.04007 18.871 6.00692 18.8213 5.96843 18.7762C5.93424 18.7361 5.89694 18.6988 5.85688 18.6646C5.81178 18.6262 5.76206 18.593 5.66261 18.5267L3.31012 16.9584C2.75348 16.5873 2.47515 16.4017 2.35643 16.1574C2.2523 15.9431 2.2281 15.6987 2.28818 15.4682C2.35668 15.2053 2.59321 14.9688 3.06627 14.4957L3.26378 14.2982C3.46346 14.0985 3.56331 13.9987 3.68089 13.9319C3.78505 13.8727 3.899 13.8328 4.0173 13.8139C4.15083 13.7926 4.29117 13.8082 4.57184 13.8394L6.22523 14.0231C6.5059 14.0543 6.64623 14.0699 6.77977 14.0486C6.89807 14.0297 7.01202 13.9897 7.11618 13.9306C7.23376 13.8638 7.3336 13.7639 7.53329 13.5643L10.8786 10.2189L4.84933 8.20917C4.0361 7.9381 3.62949 7.80256 3.44169 7.54965C3.27771 7.32881 3.21193 7.05018 3.25984 6.77932C3.31471 6.46913 3.61778 6.16605 4.22393 5.55991L4.5947 5.18914C4.82359 4.96025 4.93804 4.8458 5.07363 4.77491C5.19364 4.71216 5.32514 4.67445 5.46017 4.66405C5.61272 4.6523 5.77043 4.6887 6.08584 4.76148L13.545 6.48282C13.8549 6.55435 14.0099 6.59011 14.1595 6.57947C14.304 6.5692 14.4445 6.52767 14.5713 6.45776C14.7027 6.38534 14.8133 6.27107 15.0346 6.04254L17.7447 3.24332Z" stroke="#868B90" stroke-width="2" stroke-linecap="round" stroke-linejoin="round"/>
</svg>
