<svg width="24" height="25" viewBox="0 0 24 25" fill="none" xmlns="http://www.w3.org/2000/svg">
<path d="M12 15.4307C13.6569 15.4307 15 14.0875 15 12.4307C15 10.7738 13.6569 9.43066 12 9.43066C10.3431 9.43066 9 10.7738 9 12.4307C9 14.0875 10.3431 15.4307 12 15.4307Z" stroke="#868B90" stroke-width="2" stroke-linecap="round" stroke-linejoin="round"/>
<path d="M18.7273 15.1579C18.6063 15.4321 18.5702 15.7363 18.6236 16.0312C18.6771 16.3261 18.8177 16.5982 19.0273 16.8125L19.0818 16.867C19.2509 17.0359 19.385 17.2364 19.4765 17.4571C19.568 17.6779 19.6151 17.9145 19.6151 18.1534C19.6151 18.3923 19.568 18.6289 19.4765 18.8496C19.385 19.0704 19.2509 19.2709 19.0818 19.4398C18.913 19.6088 18.7124 19.7429 18.4917 19.8344C18.271 19.9259 18.0344 19.973 17.7955 19.973C17.5565 19.973 17.3199 19.9259 17.0992 19.8344C16.8785 19.7429 16.678 19.6088 16.5091 19.4398L16.4545 19.3852C16.2403 19.1756 15.9682 19.035 15.6733 18.9816C15.3784 18.9281 15.0742 18.9642 14.8 19.0852C14.5311 19.2004 14.3018 19.3918 14.1403 19.6357C13.9788 19.8796 13.8921 20.1654 13.8909 20.4579V20.6125C13.8909 21.0947 13.6994 21.5572 13.3584 21.8981C13.0174 22.2391 12.5549 22.4307 12.0727 22.4307C11.5905 22.4307 11.1281 22.2391 10.7871 21.8981C10.4461 21.5572 10.2545 21.0947 10.2545 20.6125V20.5307C10.2475 20.2298 10.1501 19.9379 9.97501 19.6931C9.79991 19.4483 9.55521 19.2618 9.27273 19.1579C8.99853 19.0369 8.69437 19.0008 8.39947 19.0543C8.10456 19.1078 7.83244 19.2484 7.61818 19.4579L7.56364 19.5125C7.39478 19.6815 7.19425 19.8156 6.97353 19.9071C6.7528 19.9986 6.51621 20.0457 6.27727 20.0457C6.03834 20.0457 5.80174 19.9986 5.58102 19.9071C5.36029 19.8156 5.15977 19.6815 4.99091 19.5125C4.82186 19.3436 4.68775 19.1431 4.59626 18.9224C4.50476 18.7017 4.45766 18.4651 4.45766 18.2261C4.45766 17.9872 4.50476 17.7506 4.59626 17.5299C4.68775 17.3091 4.82186 17.1086 4.99091 16.9398L5.04545 16.8852C5.25503 16.671 5.39562 16.3988 5.4491 16.1039C5.50257 15.809 5.46647 15.5049 5.34545 15.2307C5.23022 14.9618 5.03887 14.7325 4.79497 14.5709C4.55107 14.4094 4.26526 14.3227 3.97273 14.3216H3.81818C3.33597 14.3216 2.87351 14.13 2.53253 13.789C2.19156 13.4481 2 12.9856 2 12.5034C2 12.0212 2.19156 11.5587 2.53253 11.2177C2.87351 10.8768 3.33597 10.6852 3.81818 10.6852H3.9C4.2009 10.6782 4.49273 10.5808 4.73754 10.4057C4.98236 10.2306 5.16883 9.98588 5.27273 9.70339C5.39374 9.4292 5.42984 9.12503 5.37637 8.83013C5.3229 8.53522 5.18231 8.2631 4.97273 8.04885L4.91818 7.9943C4.74913 7.82544 4.61503 7.62492 4.52353 7.40419C4.43203 7.18347 4.38493 6.94687 4.38493 6.70794C4.38493 6.469 4.43203 6.23241 4.52353 6.01168C4.61503 5.79096 4.74913 5.59043 4.91818 5.42157C5.08704 5.25253 5.28757 5.11842 5.50829 5.02692C5.72901 4.93542 5.96561 4.88832 6.20455 4.88832C6.44348 4.88832 6.68008 4.93542 6.9008 5.02692C7.12152 5.11842 7.32205 5.25253 7.49091 5.42157L7.54545 5.47612C7.75971 5.6857 8.03183 5.82629 8.32674 5.87976C8.62164 5.93323 8.9258 5.89713 9.2 5.77612H9.27273C9.54161 5.66088 9.77093 5.46953 9.93245 5.22563C10.094 4.98173 10.1807 4.69592 10.1818 4.40339V4.24885C10.1818 3.76663 10.3734 3.30417 10.7144 2.9632C11.0553 2.62222 11.5178 2.43066 12 2.43066C12.4822 2.43066 12.9447 2.62222 13.2856 2.9632C13.6266 3.30417 13.8182 3.76663 13.8182 4.24885V4.33066C13.8193 4.6232 13.906 4.90901 14.0676 5.15291C14.2291 5.39681 14.4584 5.58815 14.7273 5.70339C15.0015 5.82441 15.3056 5.8605 15.6005 5.80703C15.8954 5.75356 16.1676 5.61297 16.3818 5.40339L16.4364 5.34885C16.6052 5.1798 16.8057 5.04569 17.0265 4.95419C17.2472 4.86269 17.4838 4.8156 17.7227 4.8156C17.9617 4.8156 18.1983 4.86269 18.419 4.95419C18.6397 5.04569 18.8402 5.1798 19.0091 5.34885C19.1781 5.51771 19.3122 5.71823 19.4037 5.93895C19.4952 6.15968 19.5423 6.39627 19.5423 6.63521C19.5423 6.87415 19.4952 7.11074 19.4037 7.33146C19.3122 7.55219 19.1781 7.75271 19.0091 7.92157L18.9545 7.97612C18.745 8.19037 18.6044 8.4625 18.5509 8.7574C18.4974 9.05231 18.5335 9.35647 18.6545 9.63066V9.70339C18.7698 9.97227 18.9611 10.2016 19.205 10.3631C19.4489 10.5246 19.7347 10.6113 20.0273 10.6125H20.1818C20.664 10.6125 21.1265 10.804 21.4675 11.145C21.8084 11.486 22 11.9485 22 12.4307C22 12.9129 21.8084 13.3753 21.4675 13.7163C21.1265 14.0573 20.664 14.2488 20.1818 14.2488H20.1C19.8075 14.25 19.5217 14.3367 19.2778 14.4982C19.0339 14.6597 18.8425 14.8891 18.7273 15.1579Z" stroke="#868B90" stroke-width="2" stroke-linecap="round" stroke-linejoin="round"/>
</svg>
