<svg width="24" height="25" viewBox="0 0 24 25" fill="none" xmlns="http://www.w3.org/2000/svg">
<path d="M12 15.4305C13.6569 15.4305 15 14.0874 15 12.4305C15 10.7737 13.6569 9.43054 12 9.43054C10.3431 9.43054 9 10.7737 9 12.4305C9 14.0874 10.3431 15.4305 12 15.4305Z" stroke="#868B90" stroke-width="2" stroke-linecap="round" stroke-linejoin="round"/>
<path d="M18.7273 15.1578C18.6063 15.432 18.5702 15.7362 18.6236 16.0311C18.6771 16.326 18.8177 16.5981 19.0273 16.8124L19.0818 16.8669C19.2509 17.0358 19.385 17.2363 19.4765 17.457C19.568 17.6777 19.6151 17.9143 19.6151 18.1533C19.6151 18.3922 19.568 18.6288 19.4765 18.8495C19.385 19.0702 19.2509 19.2708 19.0818 19.4396C18.913 19.6087 18.7124 19.7428 18.4917 19.8343C18.271 19.9258 18.0344 19.9729 17.7955 19.9729C17.5565 19.9729 17.3199 19.9258 17.0992 19.8343C16.8785 19.7428 16.678 19.6087 16.5091 19.4396L16.4545 19.3851C16.2403 19.1755 15.9682 19.0349 15.6733 18.9814C15.3784 18.928 15.0742 18.9641 14.8 19.0851C14.5311 19.2003 14.3018 19.3917 14.1403 19.6356C13.9788 19.8795 13.8921 20.1653 13.8909 20.4578V20.6124C13.8909 21.0946 13.6994 21.557 13.3584 21.898C13.0174 22.239 12.5549 22.4305 12.0727 22.4305C11.5905 22.4305 11.1281 22.239 10.7871 21.898C10.4461 21.557 10.2545 21.0946 10.2545 20.6124V20.5305C10.2475 20.2296 10.1501 19.9378 9.97501 19.693C9.79991 19.4482 9.55521 19.2617 9.27273 19.1578C8.99853 19.0368 8.69437 19.0007 8.39947 19.0542C8.10456 19.1076 7.83244 19.2482 7.61818 19.4578L7.56364 19.5124C7.39478 19.6814 7.19425 19.8155 6.97353 19.907C6.7528 19.9985 6.51621 20.0456 6.27727 20.0456C6.03834 20.0456 5.80174 19.9985 5.58102 19.907C5.36029 19.8155 5.15977 19.6814 4.99091 19.5124C4.82186 19.3435 4.68775 19.143 4.59626 18.9223C4.50476 18.7015 4.45766 18.4649 4.45766 18.226C4.45766 17.9871 4.50476 17.7505 4.59626 17.5297C4.68775 17.309 4.82186 17.1085 4.99091 16.9396L5.04545 16.8851C5.25503 16.6708 5.39562 16.3987 5.4491 16.1038C5.50257 15.8089 5.46647 15.5047 5.34545 15.2305C5.23022 14.9617 5.03887 14.7323 4.79497 14.5708C4.55107 14.4093 4.26526 14.3226 3.97273 14.3215H3.81818C3.33597 14.3215 2.87351 14.1299 2.53253 13.7889C2.19156 13.4479 2 12.9855 2 12.5033C2 12.0211 2.19156 11.5586 2.53253 11.2176C2.87351 10.8766 3.33597 10.6851 3.81818 10.6851H3.9C4.2009 10.678 4.49273 10.5807 4.73754 10.4056C4.98236 10.2305 5.16883 9.98576 5.27273 9.70327C5.39374 9.42907 5.42984 9.12491 5.37637 8.83001C5.3229 8.5351 5.18231 8.26298 4.97273 8.04872L4.91818 7.99418C4.74913 7.82532 4.61503 7.62479 4.52353 7.40407C4.43203 7.18335 4.38493 6.94675 4.38493 6.70781C4.38493 6.46888 4.43203 6.23228 4.52353 6.01156C4.61503 5.79084 4.74913 5.59031 4.91818 5.42145C5.08704 5.2524 5.28757 5.1183 5.50829 5.0268C5.72901 4.9353 5.96561 4.8882 6.20455 4.8882C6.44348 4.8882 6.68008 4.9353 6.9008 5.0268C7.12152 5.1183 7.32205 5.2524 7.49091 5.42145L7.54545 5.476C7.75971 5.68558 8.03183 5.82617 8.32674 5.87964C8.62164 5.93311 8.9258 5.89701 9.2 5.776H9.27273C9.54161 5.66076 9.77093 5.46941 9.93245 5.22551C10.094 4.98161 10.1807 4.6958 10.1818 4.40327V4.24872C10.1818 3.76651 10.3734 3.30405 10.7144 2.96308C11.0553 2.6221 11.5178 2.43054 12 2.43054C12.4822 2.43054 12.9447 2.6221 13.2856 2.96308C13.6266 3.30405 13.8182 3.76651 13.8182 4.24872V4.33054C13.8193 4.62308 13.906 4.90888 14.0676 5.15278C14.2291 5.39668 14.4584 5.58803 14.7273 5.70327C15.0015 5.82428 15.3056 5.86038 15.6005 5.80691C15.8954 5.75344 16.1676 5.61285 16.3818 5.40327L16.4364 5.34872C16.6052 5.17968 16.8057 5.04557 17.0265 4.95407C17.2472 4.86257 17.4838 4.81548 17.7227 4.81548C17.9617 4.81548 18.1983 4.86257 18.419 4.95407C18.6397 5.04557 18.8402 5.17968 19.0091 5.34872C19.1781 5.51758 19.3122 5.71811 19.4037 5.93883C19.4952 6.15956 19.5423 6.39615 19.5423 6.63509C19.5423 6.87402 19.4952 7.11062 19.4037 7.33134C19.3122 7.55207 19.1781 7.75259 19.0091 7.92145L18.9545 7.976C18.745 8.19025 18.6044 8.46237 18.5509 8.75728C18.4974 9.05218 18.5335 9.35635 18.6545 9.63054V9.70327C18.7698 9.97215 18.9611 10.2015 19.205 10.363C19.4489 10.5245 19.7347 10.6112 20.0273 10.6124H20.1818C20.664 10.6124 21.1265 10.8039 21.4675 11.1449C21.8084 11.4859 22 11.9483 22 12.4305C22 12.9128 21.8084 13.3752 21.4675 13.7162C21.1265 14.0572 20.664 14.2487 20.1818 14.2487H20.1C19.8075 14.2499 19.5217 14.3366 19.2778 14.4981C19.0339 14.6596 18.8425 14.8889 18.7273 15.1578Z" stroke="#868B90" stroke-width="2" stroke-linecap="round" stroke-linejoin="round"/>
</svg>
