<svg width="334" height="50" viewBox="0 0 334 50" fill="none" xmlns="http://www.w3.org/2000/svg">
<path fill-rule="evenodd" clip-rule="evenodd" d="M15 0.00817623C13.5767 0.0212237 12.3439 0.0550763 11.2692 0.142885C9.47795 0.289232 7.95061 0.595354 6.55212 1.30792C4.29417 2.4584 2.4584 4.29417 1.30792 6.55211C0.595354 7.95061 0.289232 9.47795 0.142885 11.2692C-2.79222e-05 13.0183 -1.5553e-05 15.1864 0 17.9125V17.9125V32.0875V32.0876C-1.5553e-05 34.8136 -2.79248e-05 36.9817 0.142885 38.7308C0.289232 40.522 0.595354 42.0494 1.30792 43.4479C2.4584 45.7058 4.29417 47.5416 6.55212 48.6921C7.95061 49.4046 9.47795 49.7108 11.2692 49.8571C13.0183 50 15.1863 50 17.9123 50H17.9124H316.088C318.814 50 320.982 50 322.731 49.8571C324.522 49.7108 326.049 49.4046 327.448 48.6921C329.706 47.5416 331.542 45.7058 332.692 43.4479C333.405 42.0494 333.711 40.522 333.857 38.7308C334 36.9817 334 34.8136 334 32.0876V17.9124C334 15.1864 334 13.0183 333.857 11.2692C333.711 9.47795 333.405 7.95061 332.692 6.55211C331.542 4.29417 329.706 2.4584 327.448 1.30792C326.049 0.595354 324.522 0.289232 322.731 0.142885C320.982 -2.87443e-05 318.814 -1.58683e-05 316.088 0H76V2H316C321.601 2 324.401 2 326.54 3.08994C328.422 4.04867 329.951 5.57847 330.91 7.4601C332 9.59921 332 12.3995 332 18V32C332 37.6005 332 40.4008 330.91 42.5399C329.951 44.4215 328.422 45.9513 326.54 46.9101C324.401 48 321.601 48 316 48H18C12.3995 48 9.59921 48 7.4601 46.9101C5.57848 45.9513 4.04867 44.4215 3.08994 42.5399C2 40.4008 2 37.6005 2 32V18C2 12.3995 2 9.59921 3.08994 7.4601C4.04867 5.57847 5.57848 4.04867 7.4601 3.08994C9.17784 2.2147 11.3219 2.04229 15 2.00833V0.00817623Z" fill="#C49150"/>
</svg>
