<svg width="140" height="33" viewBox="0 0 140 33" fill="none" xmlns="http://www.w3.org/2000/svg">
<path fill-rule="evenodd" clip-rule="evenodd" d="M36.4223 0L50.1073 31.2062H44.285L40.6121 22.8537H28.6411L25.1587 31.2062H22.0027L36.4223 0ZM39.8775 21.1397L34.4634 8.81501L29.3213 21.1397H39.8775ZM0 31.2062V1.03386H8.86942C9.5768 1.03386 10.2842 1.04293 10.9916 1.06107C11.7171 1.07921 12.4244 1.15176 13.1137 1.27872C15.1451 1.62334 16.6959 2.43954 17.7661 3.72734C18.8543 4.99699 19.3985 6.63846 19.3985 8.65177C19.3985 10.2842 19.0176 11.6264 18.2558 12.6784C17.5121 13.7122 16.3422 14.4559 14.7461 14.9093C15.8706 15.0544 16.8864 15.3537 17.7933 15.8072C18.7002 16.2606 19.4619 16.841 20.0786 17.5484C20.7135 18.2558 21.1941 19.081 21.5206 20.0242C21.8652 20.9674 22.0375 22.0012 22.0375 23.1258C22.0375 24.867 21.702 26.2727 21.0309 27.3428C20.3598 28.3948 19.471 29.211 18.3646 29.7915C17.2763 30.3537 16.0339 30.7346 14.6373 30.9341C13.2407 31.1155 11.8259 31.2062 10.393 31.2062H5.1965C3.4734 31.1881 1.74124 31.1881 0 31.2062ZM5.35974 16.0792V29.5194H8.48853C9.68563 29.5194 10.7648 29.4106 11.7261 29.1929C12.6874 28.9753 13.5036 28.6125 14.1748 28.1046C14.8459 27.5786 15.3628 26.8803 15.7255 26.0097C16.0883 25.121 16.2697 24.0145 16.2697 22.6905C16.2697 22.0738 16.1881 21.448 16.0248 20.8132C15.8797 20.1784 15.653 19.5889 15.3446 19.0448C15.0544 18.4825 14.6826 17.9837 14.2292 17.5484C13.7757 17.1131 13.2407 16.7866 12.624 16.5689C11.8984 16.315 11.0822 16.1699 10.1753 16.1336C9.28659 16.0792 8.46132 16.052 7.69953 16.052C7.31863 16.052 6.92867 16.0611 6.52964 16.0792H5.35974ZM5.38695 14.3652H5.9855C7.12819 14.3652 8.16204 14.3199 9.08708 14.2292C10.0302 14.1385 10.8283 13.9027 11.4813 13.5218C12.1524 13.1409 12.6693 12.5695 13.0321 11.8078C13.413 11.0278 13.6034 9.95769 13.6034 8.59735C13.6034 6.71101 13.1137 5.25998 12.1342 4.24426C11.1548 3.2104 9.67656 2.69347 7.69953 2.69347H5.38695V14.3652ZM50.9163 32.4305L60.6563 19.7249L69.1721 31.2062H75.7017L64.166 15.1542L74.9671 1.03386H71.8111L56.3304 22.2552L56.276 0.979446H50.9163V32.4305ZM77.3581 23.8332C77.739 24.4317 78.138 24.994 78.5552 25.52C78.9724 26.0279 79.453 26.5176 79.9972 26.9892C81.1217 27.9686 82.4095 28.7213 83.8605 29.2473C85.3116 29.7552 86.7717 30.0091 88.2408 30.0091C88.9482 30.0091 89.6556 29.9184 90.363 29.737C91.0703 29.5557 91.6961 29.2836 92.2402 28.9208C92.8025 28.5399 93.256 28.0593 93.6006 27.4789C93.9452 26.8985 94.1175 26.2092 94.1175 25.4112C94.1175 24.3048 93.8817 23.3434 93.4101 22.5272C92.9386 21.6929 92.3219 20.9674 91.5601 20.3507C90.7983 19.7159 89.9186 19.1445 88.921 18.6367C87.9416 18.1288 86.944 17.63 85.9283 17.1403C84.9125 16.6506 83.9059 16.1518 82.9083 15.6439C81.9289 15.1179 81.0582 14.5194 80.2964 13.8483C79.5347 13.1772 78.918 12.4154 78.4464 11.5629C77.9748 10.6923 77.739 9.66749 77.739 8.48853C77.739 7.49094 77.9023 6.59312 78.2287 5.79505C78.5552 4.99699 78.9905 4.29868 79.5347 3.70013C80.0969 3.08344 80.7499 2.56651 81.4935 2.14934C82.2372 1.71403 83.0262 1.36034 83.8605 1.08827C84.713 0.816205 85.5836 0.616687 86.4724 0.489723C87.3612 0.362758 88.2318 0.299276 89.0843 0.299276C90.626 0.299276 92.1677 0.417172 93.7094 0.652965C95.2693 0.888757 96.7566 1.27872 98.1713 1.82286L98.4706 7.15539C97.872 6.50243 97.1737 5.87667 96.3757 5.27812C95.5957 4.67957 94.7523 4.16264 93.8454 3.72734C92.9567 3.27389 92.0407 2.91113 91.0975 2.63906C90.1725 2.36699 89.2566 2.23096 88.3497 2.23096C87.7874 2.23096 87.216 2.31258 86.6356 2.47582C86.0552 2.62092 85.5292 2.84765 85.0576 3.15599C84.6042 3.46433 84.2324 3.86337 83.9422 4.35309C83.652 4.82468 83.5069 5.38695 83.5069 6.03991C83.5069 7.07377 83.7336 7.9716 84.187 8.73339C84.6586 9.47704 85.2753 10.1481 86.0371 10.7467C86.7989 11.3271 87.6604 11.8622 88.6217 12.3519C89.6012 12.8416 90.5988 13.3313 91.6145 13.8211C92.6302 14.3108 93.6187 14.8368 94.58 15.3991C95.5595 15.9432 96.4301 16.5871 97.1919 17.3307C97.9537 18.0563 98.5613 18.8997 99.0147 19.861C99.4863 20.8223 99.7221 21.9559 99.7221 23.2618C99.7221 24.8398 99.3956 26.182 98.7427 27.2884C98.0897 28.3948 97.2282 29.2927 96.158 29.9819C95.106 30.6711 93.9089 31.1699 92.5667 31.4783C91.2245 31.7866 89.8551 31.9408 88.4585 31.9408C87.6423 31.9408 86.7535 31.8955 85.7922 31.8048C84.8491 31.7141 83.8968 31.578 82.9355 31.3967C81.9923 31.2153 81.0673 30.9976 80.1604 30.7437C79.2535 30.4716 78.4192 30.1633 77.6574 29.8187L77.3581 23.8332ZM102.545 0.979446V31.2062H107.905V17.5212H121.753V31.2062H127.113V0.979446H121.753V15.8344H107.905V0.979446H102.545ZM129.848 0.289257V0.948529H131.491V5.36516H132.284V0.948529H133.929V0.289257H129.848ZM135.615 0.289257H134.65V5.36516H135.407V1.68959H135.456L137.011 5.35772H137.639L139.194 1.69207H139.243V5.36516H140V0.289257H139.035L137.356 4.23497H137.294L135.615 0.289257Z" fill="#2C2F32"/>
</svg>
