<svg width="140" height="33" viewBox="0 0 140 33" fill="none" xmlns="http://www.w3.org/2000/svg">
<path fill-rule="evenodd" clip-rule="evenodd" d="M36.4222 0L50.1073 31.2062H44.285L40.6121 22.8537H28.6411L25.1586 31.2062H22.0026L36.4222 0ZM39.8775 21.1397L34.4634 8.815L29.3213 21.1397H39.8775ZM0 31.2062V1.03386H8.86942C9.57679 1.03386 10.2842 1.04293 10.9915 1.06107C11.7171 1.0792 12.4244 1.15176 13.1137 1.27872C15.1451 1.62334 16.6959 2.43954 17.766 3.72733C18.8543 4.99698 19.3984 6.63846 19.3984 8.65176C19.3984 10.2842 19.0175 11.6264 18.2558 12.6784C17.5121 13.7122 16.3422 14.4559 14.7461 14.9093C15.8706 15.0544 16.8864 15.3537 17.7932 15.8071C18.7001 16.2606 19.4619 16.841 20.0786 17.5484C20.7134 18.2558 21.1941 19.081 21.5206 20.0242C21.8652 20.9674 22.0375 22.0012 22.0375 23.1258C22.0375 24.867 21.702 26.2727 21.0309 27.3428C20.3598 28.3948 19.471 29.211 18.3646 29.7914C17.2763 30.3537 16.0339 30.7346 14.6373 30.9341C13.2406 31.1155 11.8259 31.2062 10.393 31.2062H5.1965C3.4734 31.1881 1.74123 31.1881 0 31.2062ZM5.35974 16.0792V29.5194H8.48852C9.68562 29.5194 10.7648 29.4105 11.7261 29.1929C12.6874 28.9752 13.5036 28.6125 14.1747 28.1046C14.8458 27.5786 15.3628 26.8803 15.7255 26.0097C16.0883 25.1209 16.2697 24.0145 16.2697 22.6905C16.2697 22.0738 16.188 21.448 16.0248 20.8132C15.8797 20.1784 15.653 19.5889 15.3446 19.0448C15.0544 18.4825 14.6826 17.9837 14.2292 17.5484C13.7757 17.1131 13.2406 16.7866 12.624 16.5689C11.8984 16.315 11.0822 16.1699 10.1753 16.1336C9.28659 16.0792 8.46131 16.052 7.69952 16.052C7.31863 16.052 6.92866 16.0611 6.52963 16.0792H5.35974ZM5.38694 14.3652H5.98549C7.12818 14.3652 8.16204 14.3198 9.08707 14.2292C10.0302 14.1385 10.8283 13.9027 11.4813 13.5218C12.1524 13.1409 12.6693 12.5695 13.0321 11.8077C13.4129 11.0278 13.6034 9.95769 13.6034 8.59735C13.6034 6.71101 13.1137 5.25998 12.1342 4.24426C11.1548 3.2104 9.67655 2.69347 7.69952 2.69347H5.38694V14.3652ZM50.9162 32.4305L60.6563 19.7249L69.172 31.2062H75.7016L64.1659 15.1542L74.967 1.03386H71.8111L56.3304 22.2552L56.276 0.979445H50.9162V32.4305ZM77.3581 23.8331C77.7389 24.4317 78.138 24.994 78.5552 25.52C78.9723 26.0278 79.453 26.5176 79.9971 26.9891C81.1217 27.9686 82.4094 28.7213 83.8605 29.2473C85.3115 29.7552 86.7716 30.0091 88.2408 30.0091C88.9482 30.0091 89.6555 29.9184 90.3629 29.737C91.0703 29.5556 91.696 29.2836 92.2402 28.9208C92.8024 28.5399 93.2559 28.0593 93.6005 27.4789C93.9451 26.8984 94.1174 26.2092 94.1174 25.4111C94.1174 24.3047 93.8816 23.3434 93.4101 22.5272C92.9385 21.6929 92.3218 20.9674 91.56 20.3507C90.7982 19.7159 89.9185 19.1445 88.9209 18.6367C87.9415 18.1288 86.9439 17.63 85.9282 17.1403C84.9125 16.6506 83.9058 16.1518 82.9082 15.6439C81.9288 15.1179 81.0582 14.5194 80.2964 13.8483C79.5346 13.1772 78.9179 12.4154 78.4463 11.5629C77.9747 10.6923 77.7389 9.66748 77.7389 8.48852C77.7389 7.49094 77.9022 6.59311 78.2287 5.79505C78.5552 4.99698 78.9905 4.29867 79.5346 3.70012C80.0969 3.08344 80.7498 2.56651 81.4935 2.14934C82.2371 1.71403 83.0261 1.36034 83.8605 1.08827C84.713 0.816204 85.5836 0.616687 86.4723 0.489722C87.3611 0.362758 88.2317 0.299276 89.0842 0.299276C90.6259 0.299276 92.1676 0.417172 93.7093 0.652964C95.2692 0.888757 96.7565 1.27872 98.1712 1.82286L98.4705 7.15539C97.872 6.50242 97.1737 5.87667 96.3756 5.27812C95.5957 4.67957 94.7523 4.16264 93.8454 3.72733C92.9566 3.27388 92.0406 2.91113 91.0975 2.63906C90.1725 2.36699 89.2565 2.23096 88.3496 2.23096C87.7873 2.23096 87.216 2.31258 86.6356 2.47582C86.0552 2.62092 85.5292 2.84764 85.0576 3.15599C84.6041 3.46433 84.2323 3.86336 83.9421 4.35309C83.6519 4.82467 83.5068 5.38695 83.5068 6.03991C83.5068 7.07377 83.7335 7.97159 84.187 8.73338C84.6585 9.47703 85.2752 10.1481 86.037 10.7467C86.7988 11.3271 87.6604 11.8622 88.6217 12.3519C89.6011 12.8416 90.5987 13.3313 91.6144 13.821C92.6301 14.3108 93.6186 14.8368 94.58 15.399C95.5594 15.9432 96.43 16.5871 97.1918 17.3307C97.9536 18.0562 98.5612 18.8997 99.0147 19.861C99.4862 20.8223 99.722 21.9559 99.722 23.2618C99.722 24.8398 99.3956 26.182 98.7426 27.2884C98.0896 28.3948 97.2281 29.2926 96.158 29.9819C95.106 30.6711 93.9088 31.1699 92.5666 31.4783C91.2244 31.7866 89.855 31.9408 88.4584 31.9408C87.6422 31.9408 86.7535 31.8954 85.7922 31.8047C84.849 31.714 83.8968 31.578 82.9354 31.3966C81.9923 31.2153 81.0672 30.9976 80.1603 30.7437C79.2535 30.4716 78.4191 30.1633 77.6573 29.8186L77.3581 23.8331ZM102.545 0.979445V31.2062H107.905V17.5212H121.753V31.2062H127.113V0.979445H121.753V15.8344H107.905V0.979445H102.545ZM129.848 0.289349V0.94862H131.491V5.36524H132.284V0.94862H133.929V0.289349H129.848ZM135.615 0.289349H134.65V5.36524H135.407V1.68968H135.456L137.011 5.35781H137.639L139.194 1.69216H139.243V5.36524H140V0.289349H139.034L137.356 4.23506H137.294L135.615 0.289349Z" fill="#2C2F32"/>
</svg>
