<svg width="24" height="25" viewBox="0 0 24 25" fill="none" xmlns="http://www.w3.org/2000/svg">
<path d="M16 3.8983C17.4817 4.63465 18.5 6.16368 18.5 7.93054C18.5 9.6974 17.4817 11.2264 16 11.9628M18 17.1969C19.5115 17.8809 20.8725 18.9955 22 20.4305M2 20.4305C3.94649 17.9531 6.58918 16.4305 9.5 16.4305C12.4108 16.4305 15.0535 17.9531 17 20.4305M14 7.93054C14 10.4158 11.9853 12.4305 9.5 12.4305C7.01472 12.4305 5 10.4158 5 7.93054C5 5.44526 7.01472 3.43054 9.5 3.43054C11.9853 3.43054 14 5.44526 14 7.93054Z" stroke="#FCFCFC" stroke-width="2" stroke-linecap="round" stroke-linejoin="round"/>
</svg>
