<svg width="24" height="25" viewBox="0 0 24 25" fill="none" xmlns="http://www.w3.org/2000/svg">
<path d="M16 3.89818C17.4817 4.63453 18.5 6.16356 18.5 7.93042C18.5 9.69728 17.4817 11.2263 16 11.9627M18 17.1968C19.5115 17.8808 20.8725 18.9954 22 20.4304M2 20.4304C3.94649 17.953 6.58918 16.4304 9.5 16.4304C12.4108 16.4304 15.0535 17.953 17 20.4304M14 7.93042C14 10.4157 11.9853 12.4304 9.5 12.4304C7.01472 12.4304 5 10.4157 5 7.93042C5 5.44514 7.01472 3.43042 9.5 3.43042C11.9853 3.43042 14 5.44514 14 7.93042Z" stroke="#FCFCFC" stroke-width="2" stroke-linecap="round" stroke-linejoin="round"/>
</svg>
