<svg width="24" height="25" viewBox="0 0 24 25" fill="none" xmlns="http://www.w3.org/2000/svg">
<path d="M16 3.89827C17.4817 4.63462 18.5 6.16365 18.5 7.93051C18.5 9.69737 17.4817 11.2264 16 11.9628M18 17.1969C19.5115 17.8808 20.8725 18.9955 22 20.4305M2 20.4305C3.94649 17.9531 6.58918 16.4305 9.5 16.4305C12.4108 16.4305 15.0535 17.9531 17 20.4305M14 7.93051C14 10.4158 11.9853 12.4305 9.5 12.4305C7.01472 12.4305 5 10.4158 5 7.93051C5 5.44523 7.01472 3.43051 9.5 3.43051C11.9853 3.43051 14 5.44523 14 7.93051Z" stroke="#FCFCFC" stroke-width="2" stroke-linecap="round" stroke-linejoin="round"/>
</svg>
